ply
format ascii 1.0
element vertex 289
property float x
property float y
property float z
end_header
0.000000 0.000000 -3.000000
0.176195 0.000000 -3.000000
0.352390 0.000000 -3.000000
0.528585 0.000000 -3.000000
0.704779 0.000000 -3.000000
0.880974 0.000000 -3.000000
1.057169 0.000000 -3.000000
1.233364 0.000000 -3.000000
1.409559 0.000000 -3.000000
1.585754 0.000000 -3.000000
1.761949 0.000000 -3.000000
1.938143 0.000000 -3.000000
2.114338 0.000000 -3.000000
2.290533 0.000000 -3.000000
2.466728 0.000000 -3.000000
2.642923 0.000000 -3.000000
2.819118 0.000000 -3.000000
0.000000 0.176195 -3.000000
0.176195 0.176195 -3.000000
0.352390 0.176195 -3.000000
0.528585 0.176195 -3.000000
0.704779 0.176195 -3.000000
0.880974 0.176195 -3.000000
1.057169 0.176195 -3.000000
1.233364 0.176195 -3.000000
1.409559 0.176195 -3.000000
1.585754 0.176195 -3.000000
1.761949 0.176195 -3.000000
1.938143 0.176195 -3.000000
2.114338 0.176195 -3.000000
2.290533 0.176195 -3.000000
2.466728 0.176195 -3.000000
2.642923 0.176195 -3.000000
2.819118 0.176195 -3.000000
0.000000 0.352390 -3.000000
0.176195 0.352390 -3.000000
0.352390 0.352390 -3.000000
0.528585 0.352390 -3.000000
0.704779 0.352390 -3.000000
0.880974 0.352390 -3.000000
1.057169 0.352390 -3.000000
1.233364 0.352390 -3.000000
1.409559 0.352390 -3.000000
1.585754 0.352390 -3.000000
1.761949 0.352390 -3.000000
1.938143 0.352390 -3.000000
2.114338 0.352390 -3.000000
2.290533 0.352390 -3.000000
2.466728 0.352390 -3.000000
2.642923 0.352390 -3.000000
2.819118 0.352390 -3.000000
0.000000 0.528585 -3.000000
0.176195 0.528585 -3.000000
0.352390 0.528585 -3.000000
0.528585 0.528585 -3.000000
0.704779 0.528585 -3.000000
0.880974 0.528585 -3.000000
1.057169 0.528585 -3.000000
1.233364 0.528585 -3.000000
1.409559 0.528585 -3.000000
1.585754 0.528585 -3.000000
1.761949 0.528585 -3.000000
1.938143 0.528585 -3.000000
2.114338 0.528585 -3.000000
2.290533 0.528585 -3.000000
2.466728 0.528585 -3.000000
2.642923 0.528585 -3.000000
2.819118 0.528585 -3.000000
0.000000 0.704779 -3.000000
0.176195 0.704779 -3.000000
0.352390 0.704779 -3.000000
0.528585 0.704779 -3.000000
0.704779 0.704779 -3.000000
0.880974 0.704779 -3.000000
1.057169 0.704779 -3.000000
1.233364 0.704779 -3.000000
1.409559 0.704779 -3.000000
1.585754 0.704779 -3.000000
1.761949 0.704779 -3.000000
1.938143 0.704779 -3.000000
2.114338 0.704779 -3.000000
2.290533 0.704779 -3.000000
2.466728 0.704779 -3.000000
2.642923 0.704779 -3.000000
2.819118 0.704779 -3.000000
0.000000 0.880974 -3.000000
0.176195 0.880974 -3.000000
0.352390 0.880974 -3.000000
0.528585 0.880974 -3.000000
0.704779 0.880974 -3.000000
0.880974 0.880974 -3.000000
1.057169 0.880974 -3.000000
1.233364 0.880974 -3.000000
1.409559 0.880974 -3.000000
1.585754 0.880974 -3.000000
1.761949 0.880974 -3.000000
1.938143 0.880974 -3.000000
2.114338 0.880974 -3.000000
2.290533 0.880974 -3.000000
2.466728 0.880974 -3.000000
2.642923 0.880974 -3.000000
2.819118 0.880974 -3.000000
0.000000 1.057169 -3.000000
0.176195 1.057169 -3.000000
0.352390 1.057169 -3.000000
0.528585 1.057169 -3.000000
0.704779 1.057169 -3.000000
0.880974 1.057169 -3.000000
1.057169 1.057169 -3.000000
1.233364 1.057169 -3.000000
1.409559 1.057169 -3.000000
1.585754 1.057169 -3.000000
1.761949 1.057169 -3.000000
1.938143 1.057169 -3.000000
2.114338 1.057169 -3.000000
2.290533 1.057169 -3.000000
2.466728 1.057169 -3.000000
2.642923 1.057169 -3.000000
2.819118 1.057169 -3.000000
0.000000 1.233364 -3.000000
0.176195 1.233364 -3.000000
0.352390 1.233364 -3.000000
0.528585 1.233364 -3.000000
0.704779 1.233364 -3.000000
0.880974 1.233364 -3.000000
1.057169 1.233364 -3.000000
1.233364 1.233364 -3.000000
1.409559 1.233364 -3.000000
1.585754 1.233364 -3.000000
1.761949 1.233364 -3.000000
1.938143 1.233364 -3.000000
2.114338 1.233364 -3.000000
2.290533 1.233364 -3.000000
2.466728 1.233364 -3.000000
2.642923 1.233364 -3.000000
2.819118 1.233364 -3.000000
0.000000 1.409559 -3.000000
0.176195 1.409559 -3.000000
0.352390 1.409559 -3.000000
0.528585 1.409559 -3.000000
0.704779 1.409559 -3.000000
0.880974 1.409559 -3.000000
1.057169 1.409559 -3.000000
1.233364 1.409559 -3.000000
1.409559 1.409559 -3.000000
1.585754 1.409559 -3.000000
1.761949 1.409559 -3.000000
1.938143 1.409559 -3.000000
2.114338 1.409559 -3.000000
2.290533 1.409559 -3.000000
2.466728 1.409559 -3.000000
2.642923 1.409559 -3.000000
2.819118 1.409559 -3.000000
0.000000 1.585754 -3.000000
0.176195 1.585754 -3.000000
0.352390 1.585754 -3.000000
0.528585 1.585754 -3.000000
0.704779 1.585754 -3.000000
0.880974 1.585754 -3.000000
1.057169 1.585754 -3.000000
1.233364 1.585754 -3.000000
1.409559 1.585754 -3.000000
1.585754 1.585754 -3.000000
1.761949 1.585754 -3.000000
1.938143 1.585754 -3.000000
2.114338 1.585754 -3.000000
2.290533 1.585754 -3.000000
2.466728 1.585754 -3.000000
2.642923 1.585754 -3.000000
2.819118 1.585754 -3.000000
0.000000 1.761949 -3.000000
0.176195 1.761949 -3.000000
0.352390 1.761949 -3.000000
0.528585 1.761949 -3.000000
0.704779 1.761949 -3.000000
0.880974 1.761949 -3.000000
1.057169 1.761949 -3.000000
1.233364 1.761949 -3.000000
1.409559 1.761949 -3.000000
1.585754 1.761949 -3.000000
1.761949 1.761949 -3.000000
1.938143 1.761949 -3.000000
2.114338 1.761949 -3.000000
2.290533 1.761949 -3.000000
2.466728 1.761949 -3.000000
2.642923 1.761949 -3.000000
2.819118 1.761949 -3.000000
0.000000 1.938143 -3.000000
0.176195 1.938143 -3.000000
0.352390 1.938143 -3.000000
0.528585 1.938143 -3.000000
0.704779 1.938143 -3.000000
0.880974 1.938143 -3.000000
1.057169 1.938143 -3.000000
1.233364 1.938143 -3.000000
1.409559 1.938143 -3.000000
1.585754 1.938143 -3.000000
1.761949 1.938143 -3.000000
1.938143 1.938143 -3.000000
2.114338 1.938143 -3.000000
2.290533 1.938143 -3.000000
2.466728 1.938143 -3.000000
2.642923 1.938143 -3.000000
2.819118 1.938143 -3.000000
0.000000 2.114338 -3.000000
0.176195 2.114338 -3.000000
0.352390 2.114338 -3.000000
0.528585 2.114338 -3.000000
0.704779 2.114338 -3.000000
0.880974 2.114338 -3.000000
1.057169 2.114338 -3.000000
1.233364 2.114338 -3.000000
1.409559 2.114338 -3.000000
1.585754 2.114338 -3.000000
1.761949 2.114338 -3.000000
1.938143 2.114338 -3.000000
2.114338 2.114338 -3.000000
2.290533 2.114338 -3.000000
2.466728 2.114338 -3.000000
2.642923 2.114338 -3.000000
2.819118 2.114338 -3.000000
0.000000 2.290533 -3.000000
0.176195 2.290533 -3.000000
0.352390 2.290533 -3.000000
0.528585 2.290533 -3.000000
0.704779 2.290533 -3.000000
0.880974 2.290533 -3.000000
1.057169 2.290533 -3.000000
1.233364 2.290533 -3.000000
1.409559 2.290533 -3.000000
1.585754 2.290533 -3.000000
1.761949 2.290533 -3.000000
1.938143 2.290533 -3.000000
2.114338 2.290533 -3.000000
2.290533 2.290533 -3.000000
2.466728 2.290533 -3.000000
2.642923 2.290533 -3.000000
2.819118 2.290533 -3.000000
0.000000 2.466728 -3.000000
0.176195 2.466728 -3.000000
0.352390 2.466728 -3.000000
0.528585 2.466728 -3.000000
0.704779 2.466728 -3.000000
0.880974 2.466728 -3.000000
1.057169 2.466728 -3.000000
1.233364 2.466728 -3.000000
1.409559 2.466728 -3.000000
1.585754 2.466728 -3.000000
1.761949 2.466728 -3.000000
1.938143 2.466728 -3.000000
2.114338 2.466728 -3.000000
2.290533 2.466728 -3.000000
2.466728 2.466728 -3.000000
2.642923 2.466728 -3.000000
2.819118 2.466728 -3.000000
0.000000 2.642923 -3.000000
0.176195 2.642923 -3.000000
0.352390 2.642923 -3.000000
0.528585 2.642923 -3.000000
0.704779 2.642923 -3.000000
0.880974 2.642923 -3.000000
1.057169 2.642923 -3.000000
1.233364 2.642923 -3.000000
1.409559 2.642923 -3.000000
1.585754 2.642923 -3.000000
1.761949 2.642923 -3.000000
1.938143 2.642923 -3.000000
2.114338 2.642923 -3.000000
2.290533 2.642923 -3.000000
2.466728 2.642923 -3.000000
2.642923 2.642923 -3.000000
2.819118 2.642923 -3.000000
0.000000 2.819118 -3.000000
0.176195 2.819118 -3.000000
0.352390 2.819118 -3.000000
0.528585 2.819118 -3.000000
0.704779 2.819118 -3.000000
0.880974 2.819118 -3.000000
1.057169 2.819118 -3.000000
1.233364 2.819118 -3.000000
1.409559 2.819118 -3.000000
1.585754 2.819118 -3.000000
1.761949 2.819118 -3.000000
1.938143 2.819118 -3.000000
2.114338 2.819118 -3.000000
2.290533 2.819118 -3.000000
2.466728 2.819118 -3.000000
2.642923 2.819118 -3.000000
2.819118 2.819118 -3.000000

