ply
format ascii 1.0
element vertex 93
property float x
property float y
property float z
end_header
0.000000 0.000000 -3.000000
0.299531 0.000000 -3.000000
0.299531 0.000000 -3.000000
0.599062 0.000000 -3.000000
0.599062 0.000000 -3.000000
0.898594 0.000000 -3.000000
0.898594 0.000000 -3.000000
1.198125 0.000000 -3.000000
1.198125 0.000000 -3.000000
1.497656 0.000000 -3.000000
1.497656 0.000000 -3.000000
1.797187 0.000000 -3.000000
1.797187 0.000000 -3.000000
2.096719 0.000000 -3.000000
2.096719 0.000000 -3.000000
2.396250 0.000000 -3.000000
2.396250 0.000000 -3.000000
2.695781 0.000000 -3.000000
2.695781 0.000000 -3.000000
2.995312 0.000000 -3.000000
2.995312 0.000000 -3.000000
2.695781 0.299531 -3.000000
2.995312 0.299531 -3.000000
0.299531 0.599062 -3.000000
2.096719 0.599062 -3.000000
2.396250 0.599062 -3.000000
2.995312 0.599062 -3.000000
0.299531 0.898594 -3.000000
0.599062 0.898594 -3.000000
1.797187 0.898594 -3.000000
2.096719 0.898594 -3.000000
2.995312 0.898594 -3.000000
0.299531 1.198125 -3.000000
0.599062 1.198125 -3.000000
1.198125 1.198125 -3.000000
1.497656 1.198125 -3.000000
1.797187 1.198125 -3.000000
2.995312 1.198125 -3.000000
0.299531 1.497656 -3.000000
0.599062 1.497656 -3.000000
0.898594 1.497656 -3.000000
0.898594 1.497656 -3.000000
1.198125 1.497656 -3.000000
1.497656 1.497656 -3.000000
1.797187 1.497656 -3.000000
2.995312 1.497656 -3.000000
0.299531 1.797187 -3.000000
0.299531 1.797187 -3.000000
0.599062 1.797187 -3.000000
0.599062 1.797187 -3.000000
0.898594 1.797187 -3.000000
0.898594 1.797187 -3.000000
1.198125 1.797187 -3.000000
1.198125 1.797187 -3.000000
1.497656 1.797187 -3.000000
2.995312 1.797187 -3.000000
0.299531 2.096719 -3.000000
0.299531 2.096719 -3.000000
0.599062 2.096719 -3.000000
0.599062 2.096719 -3.000000
0.898594 2.096719 -3.000000
0.898594 2.096719 -3.000000
1.198125 2.096719 -3.000000
1.198125 2.096719 -3.000000
1.497656 2.096719 -3.000000
2.995312 2.096719 -3.000000
2.995312 2.096719 -3.000000
0.299531 2.396250 -3.000000
0.299531 2.396250 -3.000000
0.599062 2.396250 -3.000000
0.599062 2.396250 -3.000000
0.898594 2.396250 -3.000000
0.898594 2.396250 -3.000000
1.198125 2.396250 -3.000000
1.497656 2.396250 -3.000000
2.396250 2.396250 -3.000000
2.695781 2.396250 -3.000000
2.995312 2.396250 -3.000000
2.995312 2.396250 -3.000000
0.299531 2.695781 -3.000000
0.299531 2.695781 -3.000000
0.599062 2.695781 -3.000000
0.599062 2.695781 -3.000000
0.898594 2.695781 -3.000000
0.898594 2.695781 -3.000000
1.198125 2.695781 -3.000000
1.497656 2.695781 -3.000000
1.797187 2.695781 -3.000000
2.096719 2.695781 -3.000000
2.396250 2.695781 -3.000000
2.695781 2.695781 -3.000000
2.995312 2.695781 -3.000000
2.995312 2.695781 -3.000000

