ply
format ascii 1.0
element vertex 288
property float x
property float y
property float z
end_header
0.000000 0.000000 -3.000000
1.761949 0.000000 -3.000000
1.761949 0.000000 -3.000000
3.523897 0.000000 -3.000000
3.523897 0.000000 -3.000000
5.285846 0.000000 -3.000000
5.285846 0.000000 -3.000000
7.047794 0.000000 -3.000000
7.047794 0.000000 -3.000000
8.809743 0.000000 -3.000000
8.809743 0.000000 -3.000000
10.571691 0.000000 -3.000000
10.571691 0.000000 -3.000000
12.333640 0.000000 -3.000000
12.333640 0.000000 -3.000000
14.095588 0.000000 -3.000000
14.095588 0.000000 -3.000000
15.857537 0.000000 -3.000000
15.857537 0.000000 -3.000000
17.619485 0.000000 -3.000000
17.619485 0.000000 -3.000000
19.381434 0.000000 -3.000000
19.381434 0.000000 -3.000000
21.143382 0.000000 -3.000000
21.143382 0.000000 -3.000000
22.905331 0.000000 -3.000000
22.905331 0.000000 -3.000000
24.667279 0.000000 -3.000000
24.667279 0.000000 -3.000000
26.429228 0.000000 -3.000000
26.429228 0.000000 -3.000000
28.191176 0.000000 -3.000000
28.191176 0.000000 -3.000000
1.761949 1.761949 -3.000000
1.761949 1.761949 -3.000000
3.523897 1.761949 -3.000000
5.285846 1.761949 -3.000000
7.047794 1.761949 -3.000000
7.047794 1.761949 -3.000000
8.809743 1.761949 -3.000000
8.809743 1.761949 -3.000000
10.571691 1.761949 -3.000000
10.571691 1.761949 -3.000000
12.333640 1.761949 -3.000000
14.095588 1.761949 -3.000000
15.857537 1.761949 -3.000000
15.857537 1.761949 -3.000000
17.619485 1.761949 -3.000000
17.619485 1.761949 -3.000000
19.381434 1.761949 -3.000000
19.381434 1.761949 -3.000000
21.143382 1.761949 -3.000000
22.905331 1.761949 -3.000000
24.667279 1.761949 -3.000000
24.667279 1.761949 -3.000000
26.429228 1.761949 -3.000000
26.429228 1.761949 -3.000000
28.191176 1.761949 -3.000000
28.191176 1.761949 -3.000000
1.761949 3.523897 -3.000000
3.523897 3.523897 -3.000000
5.285846 3.523897 -3.000000
5.285846 3.523897 -3.000000
8.809743 3.523897 -3.000000
8.809743 3.523897 -3.000000
10.571691 3.523897 -3.000000
12.333640 3.523897 -3.000000
14.095588 3.523897 -3.000000
14.095588 3.523897 -3.000000
17.619485 3.523897 -3.000000
17.619485 3.523897 -3.000000
19.381434 3.523897 -3.000000
21.143382 3.523897 -3.000000
22.905331 3.523897 -3.000000
22.905331 3.523897 -3.000000
26.429228 3.523897 -3.000000
26.429228 3.523897 -3.000000
28.191176 3.523897 -3.000000
1.761949 5.285846 -3.000000
1.761949 5.285846 -3.000000
5.285846 5.285846 -3.000000
5.285846 5.285846 -3.000000
8.809743 5.285846 -3.000000
10.571691 5.285846 -3.000000
14.095588 5.285846 -3.000000
14.095588 5.285846 -3.000000
17.619485 5.285846 -3.000000
19.381434 5.285846 -3.000000
22.905331 5.285846 -3.000000
22.905331 5.285846 -3.000000
26.429228 5.285846 -3.000000
26.429228 5.285846 -3.000000
5.285846 7.047794 -3.000000
7.047794 7.047794 -3.000000
8.809743 7.047794 -3.000000
15.857537 7.047794 -3.000000
17.619485 7.047794 -3.000000
24.667279 7.047794 -3.000000
26.429228 7.047794 -3.000000
28.191176 7.047794 -3.000000
21.143382 8.809743 -3.000000
1.761949 10.571691 -3.000000
1.761949 10.571691 -3.000000
3.523897 10.571691 -3.000000
3.523897 10.571691 -3.000000
5.285846 10.571691 -3.000000
7.047794 10.571691 -3.000000
7.047794 10.571691 -3.000000
8.809743 10.571691 -3.000000
8.809743 10.571691 -3.000000
10.571691 10.571691 -3.000000
10.571691 10.571691 -3.000000
12.333640 10.571691 -3.000000
14.095588 10.571691 -3.000000
15.857537 10.571691 -3.000000
15.857537 10.571691 -3.000000
17.619485 10.571691 -3.000000
17.619485 10.571691 -3.000000
19.381434 10.571691 -3.000000
19.381434 10.571691 -3.000000
21.143382 10.571691 -3.000000
22.905331 10.571691 -3.000000
22.905331 10.571691 -3.000000
24.667279 10.571691 -3.000000
24.667279 10.571691 -3.000000
26.429228 10.571691 -3.000000
28.191176 10.571691 -3.000000
28.191176 10.571691 -3.000000
1.761949 12.333640 -3.000000
3.523897 12.333640 -3.000000
5.285846 12.333640 -3.000000
5.285846 12.333640 -3.000000
7.047794 12.333640 -3.000000
8.809743 12.333640 -3.000000
8.809743 12.333640 -3.000000
10.571691 12.333640 -3.000000
12.333640 12.333640 -3.000000
14.095588 12.333640 -3.000000
14.095588 12.333640 -3.000000
15.857537 12.333640 -3.000000
17.619485 12.333640 -3.000000
17.619485 12.333640 -3.000000
19.381434 12.333640 -3.000000
21.143382 12.333640 -3.000000
22.905331 12.333640 -3.000000
24.667279 12.333640 -3.000000
26.429228 12.333640 -3.000000
26.429228 12.333640 -3.000000
28.191176 12.333640 -3.000000
1.761949 14.095588 -3.000000
1.761949 14.095588 -3.000000
5.285846 14.095588 -3.000000
5.285846 14.095588 -3.000000
8.809743 14.095588 -3.000000
10.571691 14.095588 -3.000000
10.571691 14.095588 -3.000000
14.095588 14.095588 -3.000000
14.095588 14.095588 -3.000000
17.619485 14.095588 -3.000000
17.619485 14.095588 -3.000000
19.381434 14.095588 -3.000000
22.905331 14.095588 -3.000000
22.905331 14.095588 -3.000000
26.429228 14.095588 -3.000000
26.429228 14.095588 -3.000000
5.285846 15.857537 -3.000000
7.047794 15.857537 -3.000000
8.809743 15.857537 -3.000000
10.571691 15.857537 -3.000000
15.857537 15.857537 -3.000000
17.619485 15.857537 -3.000000
19.381434 15.857537 -3.000000
26.429228 15.857537 -3.000000
28.191176 15.857537 -3.000000
8.809743 17.619485 -3.000000
12.333640 17.619485 -3.000000
1.761949 19.381434 -3.000000
1.761949 19.381434 -3.000000
3.523897 19.381434 -3.000000
3.523897 19.381434 -3.000000
5.285846 19.381434 -3.000000
5.285846 19.381434 -3.000000
7.047794 19.381434 -3.000000
7.047794 19.381434 -3.000000
8.809743 19.381434 -3.000000
8.809743 19.381434 -3.000000
10.571691 19.381434 -3.000000
10.571691 19.381434 -3.000000
12.333640 19.381434 -3.000000
12.333640 19.381434 -3.000000
14.095588 19.381434 -3.000000
14.095588 19.381434 -3.000000
15.857537 19.381434 -3.000000
15.857537 19.381434 -3.000000
17.619485 19.381434 -3.000000
19.381434 19.381434 -3.000000
19.381434 19.381434 -3.000000
21.143382 19.381434 -3.000000
22.905331 19.381434 -3.000000
22.905331 19.381434 -3.000000
24.667279 19.381434 -3.000000
24.667279 19.381434 -3.000000
26.429228 19.381434 -3.000000
28.191176 19.381434 -3.000000
28.191176 19.381434 -3.000000
1.761949 21.143382 -3.000000
3.523897 21.143382 -3.000000
5.285846 21.143382 -3.000000
5.285846 21.143382 -3.000000
7.047794 21.143382 -3.000000
7.047794 21.143382 -3.000000
8.809743 21.143382 -3.000000
8.809743 21.143382 -3.000000
10.571691 21.143382 -3.000000
12.333640 21.143382 -3.000000
14.095588 21.143382 -3.000000
14.095588 21.143382 -3.000000
15.857537 21.143382 -3.000000
17.619485 21.143382 -3.000000
17.619485 21.143382 -3.000000
19.381434 21.143382 -3.000000
21.143382 21.143382 -3.000000
22.905331 21.143382 -3.000000
24.667279 21.143382 -3.000000
26.429228 21.143382 -3.000000
26.429228 21.143382 -3.000000
28.191176 21.143382 -3.000000
1.761949 22.905331 -3.000000
1.761949 22.905331 -3.000000
5.285846 22.905331 -3.000000
5.285846 22.905331 -3.000000
8.809743 22.905331 -3.000000
8.809743 22.905331 -3.000000
10.571691 22.905331 -3.000000
10.571691 22.905331 -3.000000
14.095588 22.905331 -3.000000
14.095588 22.905331 -3.000000
17.619485 22.905331 -3.000000
17.619485 22.905331 -3.000000
22.905331 22.905331 -3.000000
22.905331 22.905331 -3.000000
26.429228 22.905331 -3.000000
26.429228 22.905331 -3.000000
1.761949 24.667279 -3.000000
5.285846 24.667279 -3.000000
7.047794 24.667279 -3.000000
8.809743 24.667279 -3.000000
10.571691 24.667279 -3.000000
14.095588 24.667279 -3.000000
17.619485 24.667279 -3.000000
19.381434 24.667279 -3.000000
26.429228 24.667279 -3.000000
28.191176 24.667279 -3.000000
3.523897 26.429228 -3.000000
8.809743 26.429228 -3.000000
17.619485 26.429228 -3.000000
24.667279 26.429228 -3.000000
1.761949 28.191176 -3.000000
1.761949 28.191176 -3.000000
3.523897 28.191176 -3.000000
3.523897 28.191176 -3.000000
5.285846 28.191176 -3.000000
5.285846 28.191176 -3.000000
7.047794 28.191176 -3.000000
7.047794 28.191176 -3.000000
8.809743 28.191176 -3.000000
8.809743 28.191176 -3.000000
10.571691 28.191176 -3.000000
10.571691 28.191176 -3.000000
12.333640 28.191176 -3.000000
12.333640 28.191176 -3.000000
14.095588 28.191176 -3.000000
14.095588 28.191176 -3.000000
15.857537 28.191176 -3.000000
15.857537 28.191176 -3.000000
17.619485 28.191176 -3.000000
19.381434 28.191176 -3.000000
19.381434 28.191176 -3.000000
21.143382 28.191176 -3.000000
21.143382 28.191176 -3.000000
22.905331 28.191176 -3.000000
22.905331 28.191176 -3.000000
24.667279 28.191176 -3.000000
24.667279 28.191176 -3.000000
26.429228 28.191176 -3.000000
26.429228 28.191176 -3.000000
28.191176 28.191176 -3.000000
28.191176 28.191176 -3.000000

